<svg fill="none" height="100%" width="100%" viewBox="0 0 1200 800" xmlns:xlink="http://www.w3.org/1999/xlink" xmlns="http://www.w3.org/2000/svg"><defs><clipPath id="i0"><rect height="800" width="1200" y="0" x="0" /></clipPath><g id="i1"><g id="i2"><g transform="translate(603.247,480.811)"><g transform="rotate(0)"><animateTransform repeatCount="indefinite" type="rotate" attributeName="transform" dur="10.033s" begin="0s" calcMode="spline" values="0; 540; 540" keyTimes="0; 0.996678; 1" keySplines="0 0 1 1; 0 0 1 1" fill="freeze" /><g transform="scale(1.21,1.21) translate(-1.534,-91.345)"><g stroke-dashoffset="-52.389" stroke-dasharray="34 66" pathLength="100" id="i3" transform="matrix(1,0,0,1,1.534,91.345)"><ellipse ry="301.871" rx="301.871" cy="0" cx="0" stroke-width="1" stroke="#002671" /></g></g></g></g></g><g id="i4"><g transform="translate(603.247,480.811)"><g transform="rotate(0)"><animateTransform repeatCount="indefinite" type="rotate" attributeName="transform" dur="10.033s" begin="0s" calcMode="spline" values="0; 900; 900" keyTimes="0; 0.996678; 1" keySplines="0 0 1 1; 0 0 1 1" fill="freeze" /><g transform="scale(1.11,1.11) translate(-1.534,-91.345)"><g stroke-dashoffset="-77.944" stroke-dasharray="34 66" pathLength="100" id="i3" transform="matrix(1,0,0,1,1.534,91.345)"><ellipse ry="301.871" rx="301.871" cy="0" cx="0" stroke-width="1" stroke="#002671" /></g></g></g></g></g><g id="i5"><g transform="translate(605.937,478.122)"><g transform="rotate(0)"><animateTransform repeatCount="indefinite" type="rotate" attributeName="transform" dur="10.033s" begin="0s" calcMode="spline" values="0; 540; 540" keyTimes="0; 0.996678; 1" keySplines="0 0 1 1; 0 0 1 1" fill="freeze" /><g transform="scale(1.32,1.32) translate(1.35,-96.641)"><g stroke-dashoffset="-13.778" stroke-dasharray="34 66" pathLength="100" id="i3" transform="matrix(1,0,0,1,1.534,91.345)"><ellipse ry="301.871" rx="301.871" cy="0" cx="0" stroke-width="1" stroke="#002671" /></g></g></g></g></g><g id="i6"><g transform="translate(605.937,478.122)"><g transform="rotate(0)"><animateTransform repeatCount="indefinite" type="rotate" attributeName="transform" dur="10.033s" begin="0s" calcMode="spline" values="0; 720; 720" keyTimes="0; 0.996678; 1" keySplines="0 0 1 1; 0 0 1 1" fill="freeze" /><g transform="scale(1.4,1.4) translate(1.35,-96.641)"><g stroke-dashoffset="-27.944" stroke-dasharray="34 66" pathLength="100" id="i3" transform="matrix(1,0,0,1,1.534,91.345)"><ellipse ry="301.871" rx="301.871" cy="0" cx="0" stroke-width="1" stroke="#002671" /></g></g></g></g></g></g><clipPath id="i7"><rect height="800" width="3600" y="0" x="0" /></clipPath><g id="i8"><g transform="matrix(1,0,0,1,1200,534)" id="i9"><g id="i10" transform="matrix(1,0,0,1,159.387,133.086)"><path fill="#000616" d="M-159.388,132.861C-159.388,132.861,146.755,-132.861,146.755,-132.861C146.755,-132.861,157.735,-79.399,157.735,-79.399C159.388,-71.35,159.157,-63.027,157.059,-55.082C157.059,-55.082,155.019,-47.357,155.019,-47.357C149.309,-25.733,128.36,-11.771,106.204,-14.823C81.701,-18.197,59.19,-0.829,56.238,23.728C56.238,23.728,47.669,95.004,47.669,95.004C46.008,108.822,40.582,121.917,31.984,132.861C31.984,132.861,-159.388,132.861,-159.388,132.861Z" /></g><g id="i11" transform="matrix(1,0,0,1,370.872,132.973)"><path fill="#000c2a" d="M-54.426,-54.969C-52.328,-62.914,-52.097,-71.237,-53.75,-79.286C-53.75,-79.286,-64.73,-132.749,-64.73,-132.749C-64.73,-132.749,-64.471,-132.974,-64.471,-132.974C-64.471,-132.974,179.5,132.974,179.5,132.974C179.5,132.974,-179.501,132.974,-179.501,132.974C-170.903,122.03,-165.477,108.935,-163.816,95.117C-163.816,95.117,-155.247,23.84,-155.247,23.84C-152.295,-0.717,-129.784,-18.084,-105.281,-14.709C-83.125,-11.658,-62.176,-25.621,-56.466,-47.245C-56.466,-47.245,-54.426,-54.969,-54.426,-54.969Z" /></g><g id="i12" transform="matrix(1,0,0,1,345.877,177.122)"><path fill="#000718" d="M-113.826,88.824C-113.826,88.824,90.844,-88.824,90.844,-88.824C90.844,-88.824,110.232,-45.278,110.232,-45.278C113.219,-38.569,113.826,-31.04,111.951,-23.94C107.791,-8.188,92.371,1.96,76.232,-0.262C60.528,-2.425,45.392,7.006,40.582,22.112C40.582,22.112,26.566,66.134,26.566,66.134C24.143,73.742,20.377,80.854,15.444,87.132C15.444,87.132,14.114,88.824,14.114,88.824C14.114,88.824,-113.826,88.824,-113.826,88.824Z" /></g><g id="i13" transform="matrix(1,0,0,1,479.996,177.047)"><path fill="#001b5d" d="M-22.168,-23.865C-20.293,-30.965,-20.899,-38.494,-23.887,-45.203C-23.887,-45.203,-43.275,-88.748,-43.275,-88.748C-43.275,-88.748,-43.102,-88.899,-43.102,-88.899C-43.102,-88.899,120.004,88.899,120.004,88.899C120.004,88.899,-120.004,88.899,-120.004,88.899C-120.004,88.899,-118.675,87.207,-118.675,87.207C-113.742,80.929,-109.975,73.817,-107.553,66.209C-107.553,66.209,-93.537,22.187,-93.537,22.187C-88.727,7.081,-73.591,-2.35,-57.886,-0.188C-41.747,2.035,-26.328,-8.113,-22.168,-23.865Z" /></g></g><g transform="matrix(1,0,0,1,1743,482)" id="i14"><g id="i10" transform="matrix(1,0,0,1,190.099,160.729)"><path fill="#000616" d="M-190.099,158.461C-190.099,158.461,175.031,-158.461,175.031,-158.461C175.031,-158.461,188.127,-94.697,188.127,-94.697C190.099,-85.097,189.822,-75.171,187.32,-65.695C187.32,-65.695,184.887,-56.481,184.887,-56.481C178.077,-30.691,153.091,-14.038,126.666,-17.678C97.442,-21.703,70.594,-0.988,67.073,28.301C67.073,28.301,56.854,113.311,56.854,113.311C54.872,129.791,48.401,145.409,38.146,158.461C38.146,158.461,-190.099,158.461,-190.099,158.461Z" /></g><g id="i11" transform="matrix(1,0,0,1,442.332,160.595)"><path fill="#000c2a" d="M-64.913,-65.561C-62.41,-75.037,-62.134,-84.963,-64.106,-94.563C-64.106,-94.563,-77.202,-158.327,-77.202,-158.327C-77.202,-158.327,-76.893,-158.595,-76.893,-158.595C-76.893,-158.595,214.087,158.595,214.087,158.595C214.087,158.595,-214.087,158.595,-214.087,158.595C-203.832,145.543,-197.36,129.924,-195.379,113.444C-195.379,113.444,-185.159,28.434,-185.159,28.434C-181.638,-0.855,-154.791,-21.569,-125.567,-17.544C-99.142,-13.905,-74.156,-30.557,-67.346,-56.348C-67.346,-56.348,-64.913,-65.561,-64.913,-65.561Z" /></g><g id="i12" transform="matrix(1,0,0,1,357.877,227.661)"><path fill="#000718" d="M-113.826,88.823C-113.826,88.823,90.844,-88.824,90.844,-88.824C90.844,-88.824,110.232,-45.279,110.232,-45.279C113.219,-38.569,113.826,-31.041,111.951,-23.941C107.791,-8.189,92.371,1.96,76.232,-0.262C60.528,-2.425,45.392,7.005,40.582,22.111C40.582,22.111,26.566,66.134,26.566,66.134C24.143,73.742,20.377,80.854,15.444,87.132C15.444,87.132,14.114,88.823,14.114,88.823C14.114,88.823,-113.826,88.823,-113.826,88.823Z" /></g><g id="i13" transform="matrix(1,0,0,1,491.996,227.586)"><path fill="#001b5d" d="M-22.168,-23.865C-20.293,-30.965,-20.899,-38.494,-23.887,-45.203C-23.887,-45.203,-43.275,-88.748,-43.275,-88.748C-43.275,-88.748,-43.102,-88.898,-43.102,-88.898C-43.102,-88.898,120.004,88.898,120.004,88.898C120.004,88.898,-120.004,88.898,-120.004,88.898C-120.004,88.898,-118.675,87.207,-118.675,87.207C-113.742,80.929,-109.975,73.817,-107.553,66.209C-107.553,66.209,-93.537,22.187,-93.537,22.187C-88.727,7.081,-73.591,-2.35,-57.886,-0.187C-41.747,2.035,-26.328,-8.113,-22.168,-23.865Z" /></g></g><g transform="matrix(1,0,0,1,-1,534)" id="i15"><g id="i10" transform="matrix(1,0,0,1,159.387,133.086)"><path fill="#000616" d="M-159.388,132.861C-159.388,132.861,146.755,-132.861,146.755,-132.861C146.755,-132.861,157.735,-79.399,157.735,-79.399C159.388,-71.35,159.157,-63.027,157.059,-55.082C157.059,-55.082,155.019,-47.357,155.019,-47.357C149.309,-25.733,128.36,-11.771,106.204,-14.823C81.701,-18.197,59.19,-0.829,56.238,23.728C56.238,23.728,47.669,95.004,47.669,95.004C46.008,108.822,40.582,121.917,31.984,132.861C31.984,132.861,-159.388,132.861,-159.388,132.861Z" /></g><g id="i11" transform="matrix(1,0,0,1,370.872,132.973)"><path fill="#000c2a" d="M-54.426,-54.969C-52.328,-62.914,-52.097,-71.237,-53.75,-79.286C-53.75,-79.286,-64.73,-132.749,-64.73,-132.749C-64.73,-132.749,-64.471,-132.974,-64.471,-132.974C-64.471,-132.974,179.5,132.974,179.5,132.974C179.5,132.974,-179.501,132.974,-179.501,132.974C-170.903,122.03,-165.477,108.935,-163.816,95.117C-163.816,95.117,-155.247,23.84,-155.247,23.84C-152.295,-0.717,-129.784,-18.084,-105.281,-14.709C-83.125,-11.658,-62.176,-25.621,-56.466,-47.245C-56.466,-47.245,-54.426,-54.969,-54.426,-54.969Z" /></g><g id="i12" transform="matrix(1,0,0,1,345.877,177.122)"><path fill="#000718" d="M-113.826,88.824C-113.826,88.824,90.844,-88.824,90.844,-88.824C90.844,-88.824,110.232,-45.278,110.232,-45.278C113.219,-38.569,113.826,-31.04,111.951,-23.94C107.791,-8.188,92.371,1.96,76.232,-0.262C60.528,-2.425,45.392,7.006,40.582,22.112C40.582,22.112,26.566,66.134,26.566,66.134C24.143,73.742,20.377,80.854,15.444,87.132C15.444,87.132,14.114,88.824,14.114,88.824C14.114,88.824,-113.826,88.824,-113.826,88.824Z" /></g><g id="i13" transform="matrix(1,0,0,1,479.996,177.047)"><path fill="#001b5d" d="M-22.168,-23.865C-20.293,-30.965,-20.899,-38.494,-23.887,-45.203C-23.887,-45.203,-43.275,-88.748,-43.275,-88.748C-43.275,-88.748,-43.102,-88.899,-43.102,-88.899C-43.102,-88.899,120.004,88.899,120.004,88.899C120.004,88.899,-120.004,88.899,-120.004,88.899C-120.004,88.899,-118.675,87.207,-118.675,87.207C-113.742,80.929,-109.975,73.817,-107.553,66.209C-107.553,66.209,-93.537,22.187,-93.537,22.187C-88.727,7.081,-73.591,-2.35,-57.886,-0.188C-41.747,2.035,-26.328,-8.113,-22.168,-23.865Z" /></g></g><g transform="matrix(1,0,0,1,2399,534)" id="i16"><g id="i10" transform="matrix(1,0,0,1,159.387,133.086)"><path fill="#000616" d="M-159.388,132.861C-159.388,132.861,146.755,-132.861,146.755,-132.861C146.755,-132.861,157.735,-79.399,157.735,-79.399C159.388,-71.35,159.157,-63.027,157.059,-55.082C157.059,-55.082,155.019,-47.357,155.019,-47.357C149.309,-25.733,128.36,-11.771,106.204,-14.823C81.701,-18.197,59.19,-0.829,56.238,23.728C56.238,23.728,47.669,95.004,47.669,95.004C46.008,108.822,40.582,121.917,31.984,132.861C31.984,132.861,-159.388,132.861,-159.388,132.861Z" /></g><g id="i11" transform="matrix(1,0,0,1,370.872,132.973)"><path fill="#000c2a" d="M-54.426,-54.969C-52.328,-62.914,-52.097,-71.237,-53.75,-79.286C-53.75,-79.286,-64.73,-132.749,-64.73,-132.749C-64.73,-132.749,-64.471,-132.974,-64.471,-132.974C-64.471,-132.974,179.5,132.974,179.5,132.974C179.5,132.974,-179.501,132.974,-179.501,132.974C-170.903,122.03,-165.477,108.935,-163.816,95.117C-163.816,95.117,-155.247,23.84,-155.247,23.84C-152.295,-0.717,-129.784,-18.084,-105.281,-14.709C-83.125,-11.658,-62.176,-25.621,-56.466,-47.245C-56.466,-47.245,-54.426,-54.969,-54.426,-54.969Z" /></g><g id="i12" transform="matrix(1,0,0,1,345.877,177.122)"><path fill="#000718" d="M-113.826,88.824C-113.826,88.824,90.844,-88.824,90.844,-88.824C90.844,-88.824,110.232,-45.278,110.232,-45.278C113.219,-38.569,113.826,-31.04,111.951,-23.94C107.791,-8.188,92.371,1.96,76.232,-0.262C60.528,-2.425,45.392,7.006,40.582,22.112C40.582,22.112,26.566,66.134,26.566,66.134C24.143,73.742,20.377,80.854,15.444,87.132C15.444,87.132,14.114,88.824,14.114,88.824C14.114,88.824,-113.826,88.824,-113.826,88.824Z" /></g><g id="i13" transform="matrix(1,0,0,1,479.996,177.047)"><path fill="#001b5d" d="M-22.168,-23.865C-20.293,-30.965,-20.899,-38.494,-23.887,-45.203C-23.887,-45.203,-43.275,-88.748,-43.275,-88.748C-43.275,-88.748,-43.102,-88.899,-43.102,-88.899C-43.102,-88.899,120.004,88.899,120.004,88.899C120.004,88.899,-120.004,88.899,-120.004,88.899C-120.004,88.899,-118.675,87.207,-118.675,87.207C-113.742,80.929,-109.975,73.817,-107.553,66.209C-107.553,66.209,-93.537,22.187,-93.537,22.187C-88.727,7.081,-73.591,-2.35,-57.886,-0.188C-41.747,2.035,-26.328,-8.113,-22.168,-23.865Z" /></g></g><g transform="matrix(1,0,0,1,542,482)" id="i17"><g id="i10" transform="matrix(1,0,0,1,190.099,160.729)"><path fill="#000616" d="M-190.099,158.461C-190.099,158.461,175.031,-158.461,175.031,-158.461C175.031,-158.461,188.127,-94.697,188.127,-94.697C190.099,-85.097,189.822,-75.171,187.32,-65.695C187.32,-65.695,184.887,-56.481,184.887,-56.481C178.077,-30.691,153.091,-14.038,126.666,-17.678C97.442,-21.703,70.594,-0.988,67.073,28.301C67.073,28.301,56.854,113.311,56.854,113.311C54.872,129.791,48.401,145.409,38.146,158.461C38.146,158.461,-190.099,158.461,-190.099,158.461Z" /></g><g id="i11" transform="matrix(1,0,0,1,442.332,160.595)"><path fill="#000c2a" d="M-64.913,-65.561C-62.41,-75.037,-62.134,-84.963,-64.106,-94.563C-64.106,-94.563,-77.202,-158.327,-77.202,-158.327C-77.202,-158.327,-76.893,-158.595,-76.893,-158.595C-76.893,-158.595,214.087,158.595,214.087,158.595C214.087,158.595,-214.087,158.595,-214.087,158.595C-203.832,145.543,-197.36,129.924,-195.379,113.444C-195.379,113.444,-185.159,28.434,-185.159,28.434C-181.638,-0.855,-154.791,-21.569,-125.567,-17.544C-99.142,-13.905,-74.156,-30.557,-67.346,-56.348C-67.346,-56.348,-64.913,-65.561,-64.913,-65.561Z" /></g><g id="i12" transform="matrix(1,0,0,1,357.877,227.661)"><path fill="#000718" d="M-113.826,88.823C-113.826,88.823,90.844,-88.824,90.844,-88.824C90.844,-88.824,110.232,-45.279,110.232,-45.279C113.219,-38.569,113.826,-31.041,111.951,-23.941C107.791,-8.189,92.371,1.96,76.232,-0.262C60.528,-2.425,45.392,7.005,40.582,22.111C40.582,22.111,26.566,66.134,26.566,66.134C24.143,73.742,20.377,80.854,15.444,87.132C15.444,87.132,14.114,88.823,14.114,88.823C14.114,88.823,-113.826,88.823,-113.826,88.823Z" /></g><g id="i13" transform="matrix(1,0,0,1,491.996,227.586)"><path fill="#001b5d" d="M-22.168,-23.865C-20.293,-30.965,-20.899,-38.494,-23.887,-45.203C-23.887,-45.203,-43.275,-88.748,-43.275,-88.748C-43.275,-88.748,-43.102,-88.898,-43.102,-88.898C-43.102,-88.898,120.004,88.898,120.004,88.898C120.004,88.898,-120.004,88.898,-120.004,88.898C-120.004,88.898,-118.675,87.207,-118.675,87.207C-113.742,80.929,-109.975,73.817,-107.553,66.209C-107.553,66.209,-93.537,22.187,-93.537,22.187C-88.727,7.081,-73.591,-2.35,-57.886,-0.187C-41.747,2.035,-26.328,-8.113,-22.168,-23.865Z" /></g></g><g transform="matrix(1,0,0,1,2942,482)" id="i18"><g id="i10" transform="matrix(1,0,0,1,190.099,160.729)"><path fill="#000616" d="M-190.099,158.461C-190.099,158.461,175.031,-158.461,175.031,-158.461C175.031,-158.461,188.127,-94.697,188.127,-94.697C190.099,-85.097,189.822,-75.171,187.32,-65.695C187.32,-65.695,184.887,-56.481,184.887,-56.481C178.077,-30.691,153.091,-14.038,126.666,-17.678C97.442,-21.703,70.594,-0.988,67.073,28.301C67.073,28.301,56.854,113.311,56.854,113.311C54.872,129.791,48.401,145.409,38.146,158.461C38.146,158.461,-190.099,158.461,-190.099,158.461Z" /></g><g id="i11" transform="matrix(1,0,0,1,442.332,160.595)"><path fill="#000c2a" d="M-64.913,-65.561C-62.41,-75.037,-62.134,-84.963,-64.106,-94.563C-64.106,-94.563,-77.202,-158.327,-77.202,-158.327C-77.202,-158.327,-76.893,-158.595,-76.893,-158.595C-76.893,-158.595,214.087,158.595,214.087,158.595C214.087,158.595,-214.087,158.595,-214.087,158.595C-203.832,145.543,-197.36,129.924,-195.379,113.444C-195.379,113.444,-185.159,28.434,-185.159,28.434C-181.638,-0.855,-154.791,-21.569,-125.567,-17.544C-99.142,-13.905,-74.156,-30.557,-67.346,-56.348C-67.346,-56.348,-64.913,-65.561,-64.913,-65.561Z" /></g><g id="i12" transform="matrix(1,0,0,1,357.877,227.661)"><path fill="#000718" d="M-113.826,88.823C-113.826,88.823,90.844,-88.824,90.844,-88.824C90.844,-88.824,110.232,-45.279,110.232,-45.279C113.219,-38.569,113.826,-31.041,111.951,-23.941C107.791,-8.189,92.371,1.96,76.232,-0.262C60.528,-2.425,45.392,7.005,40.582,22.111C40.582,22.111,26.566,66.134,26.566,66.134C24.143,73.742,20.377,80.854,15.444,87.132C15.444,87.132,14.114,88.823,14.114,88.823C14.114,88.823,-113.826,88.823,-113.826,88.823Z" /></g><g id="i13" transform="matrix(1,0,0,1,491.996,227.586)"><path fill="#001b5d" d="M-22.168,-23.865C-20.293,-30.965,-20.899,-38.494,-23.887,-45.203C-23.887,-45.203,-43.275,-88.748,-43.275,-88.748C-43.275,-88.748,-43.102,-88.898,-43.102,-88.898C-43.102,-88.898,120.004,88.898,120.004,88.898C120.004,88.898,-120.004,88.898,-120.004,88.898C-120.004,88.898,-118.675,87.207,-118.675,87.207C-113.742,80.929,-109.975,73.817,-107.553,66.209C-107.553,66.209,-93.537,22.187,-93.537,22.187C-88.727,7.081,-73.591,-2.35,-57.886,-0.187C-41.747,2.035,-26.328,-8.113,-22.168,-23.865Z" /></g></g></g></defs><g transform="matrix(1,0,0,1,600,400)" id="i2"><g id="i19" transform="matrix(1,0,0,1,1.234,11.115)"><rect height="862.119" width="1224.628" y="-431.06" x="-612.314" fill="#000000" /></g></g><g transform="matrix(1,0,0,1,0,-58)" id="i20"><g clip-path="url(#i0)"><g><g transform="translate(603.247,480.811)"><g transform="rotate(0)"><animateTransform repeatCount="indefinite" type="rotate" attributeName="transform" dur="10.033s" begin="0s" calcMode="spline" values="0; 540; 540" keyTimes="0; 0.996678; 1" keySplines="0 0 1 1; 0 0 1 1" fill="freeze" /><g transform="scale(1.21,1.21) translate(-1.534,-91.345)"><g stroke-dashoffset="-52.389" stroke-dasharray="34 66" pathLength="100" transform="matrix(1,0,0,1,1.534,91.345)"><ellipse ry="301.871" rx="301.871" cy="0" cx="0" stroke-width="1" stroke="#002671" /></g></g></g></g></g><g><g transform="translate(603.247,480.811)"><g transform="rotate(0)"><animateTransform repeatCount="indefinite" type="rotate" attributeName="transform" dur="10.033s" begin="0s" calcMode="spline" values="0; 900; 900" keyTimes="0; 0.996678; 1" keySplines="0 0 1 1; 0 0 1 1" fill="freeze" /><g transform="scale(1.11,1.11) translate(-1.534,-91.345)"><g stroke-dashoffset="-77.944" stroke-dasharray="34 66" pathLength="100" transform="matrix(1,0,0,1,1.534,91.345)"><ellipse ry="301.871" rx="301.871" cy="0" cx="0" stroke-width="1" stroke="#002671" /></g></g></g></g></g><g><g transform="translate(605.937,478.122)"><g transform="rotate(0)"><animateTransform repeatCount="indefinite" type="rotate" attributeName="transform" dur="10.033s" begin="0s" calcMode="spline" values="0; 540; 540" keyTimes="0; 0.996678; 1" keySplines="0 0 1 1; 0 0 1 1" fill="freeze" /><g transform="scale(1.32,1.32) translate(1.35,-96.641)"><g stroke-dashoffset="-13.778" stroke-dasharray="34 66" pathLength="100" transform="matrix(1,0,0,1,1.534,91.345)"><ellipse ry="301.871" rx="301.871" cy="0" cx="0" stroke-width="1" stroke="#002671" /></g></g></g></g></g><g><g transform="translate(605.937,478.122)"><g transform="rotate(0)"><animateTransform repeatCount="indefinite" type="rotate" attributeName="transform" dur="10.033s" begin="0s" calcMode="spline" values="0; 720; 720" keyTimes="0; 0.996678; 1" keySplines="0 0 1 1; 0 0 1 1" fill="freeze" /><g transform="scale(1.4,1.4) translate(1.35,-96.641)"><g stroke-dashoffset="-27.944" stroke-dasharray="34 66" pathLength="100" transform="matrix(1,0,0,1,1.534,91.345)"><ellipse ry="301.871" rx="301.871" cy="0" cx="0" stroke-width="1" stroke="#002671" /></g></g></g></g></g></g></g><g transform="matrix(1,0,0,1,600,308.655)" id="i21"><g id="i3" transform="matrix(1,0,0,1,1.534,91.345)"><ellipse ry="301.871" rx="301.871" cy="0" cx="0" fill="#002670" /></g></g><g id="i22"><g transform="translate(600,407)"><animateTransform repeatCount="indefinite" type="translate" attributeName="transform" dur="10.033s" begin="0s" calcMode="spline" values="600 407; 1800 407; 1800 407" keyTimes="0; 0.996678; 1" keySplines="0 0 1 1; 0 0 1 1" fill="freeze" /><g transform="scale(1,1) translate(-1800,-400)"><g clip-path="url(#i7)"><g transform="matrix(1,0,0,1,1200,534)"><g transform="matrix(1,0,0,1,159.387,133.086)"><path fill="#000616" d="M-159.388,132.861C-159.388,132.861,146.755,-132.861,146.755,-132.861C146.755,-132.861,157.735,-79.399,157.735,-79.399C159.388,-71.35,159.157,-63.027,157.059,-55.082C157.059,-55.082,155.019,-47.357,155.019,-47.357C149.309,-25.733,128.36,-11.771,106.204,-14.823C81.701,-18.197,59.19,-0.829,56.238,23.728C56.238,23.728,47.669,95.004,47.669,95.004C46.008,108.822,40.582,121.917,31.984,132.861C31.984,132.861,-159.388,132.861,-159.388,132.861Z" /></g><g transform="matrix(1,0,0,1,370.872,132.973)"><path fill="#000c2a" d="M-54.426,-54.969C-52.328,-62.914,-52.097,-71.237,-53.75,-79.286C-53.75,-79.286,-64.73,-132.749,-64.73,-132.749C-64.73,-132.749,-64.471,-132.974,-64.471,-132.974C-64.471,-132.974,179.5,132.974,179.5,132.974C179.5,132.974,-179.501,132.974,-179.501,132.974C-170.903,122.03,-165.477,108.935,-163.816,95.117C-163.816,95.117,-155.247,23.84,-155.247,23.84C-152.295,-0.717,-129.784,-18.084,-105.281,-14.709C-83.125,-11.658,-62.176,-25.621,-56.466,-47.245C-56.466,-47.245,-54.426,-54.969,-54.426,-54.969Z" /></g><g transform="matrix(1,0,0,1,345.877,177.122)"><path fill="#000718" d="M-113.826,88.824C-113.826,88.824,90.844,-88.824,90.844,-88.824C90.844,-88.824,110.232,-45.278,110.232,-45.278C113.219,-38.569,113.826,-31.04,111.951,-23.94C107.791,-8.188,92.371,1.96,76.232,-0.262C60.528,-2.425,45.392,7.006,40.582,22.112C40.582,22.112,26.566,66.134,26.566,66.134C24.143,73.742,20.377,80.854,15.444,87.132C15.444,87.132,14.114,88.824,14.114,88.824C14.114,88.824,-113.826,88.824,-113.826,88.824Z" /></g><g transform="matrix(1,0,0,1,479.996,177.047)"><path fill="#001b5d" d="M-22.168,-23.865C-20.293,-30.965,-20.899,-38.494,-23.887,-45.203C-23.887,-45.203,-43.275,-88.748,-43.275,-88.748C-43.275,-88.748,-43.102,-88.899,-43.102,-88.899C-43.102,-88.899,120.004,88.899,120.004,88.899C120.004,88.899,-120.004,88.899,-120.004,88.899C-120.004,88.899,-118.675,87.207,-118.675,87.207C-113.742,80.929,-109.975,73.817,-107.553,66.209C-107.553,66.209,-93.537,22.187,-93.537,22.187C-88.727,7.081,-73.591,-2.35,-57.886,-0.188C-41.747,2.035,-26.328,-8.113,-22.168,-23.865Z" /></g></g><g transform="matrix(1,0,0,1,1743,482)"><g transform="matrix(1,0,0,1,190.099,160.729)"><path fill="#000616" d="M-190.099,158.461C-190.099,158.461,175.031,-158.461,175.031,-158.461C175.031,-158.461,188.127,-94.697,188.127,-94.697C190.099,-85.097,189.822,-75.171,187.32,-65.695C187.32,-65.695,184.887,-56.481,184.887,-56.481C178.077,-30.691,153.091,-14.038,126.666,-17.678C97.442,-21.703,70.594,-0.988,67.073,28.301C67.073,28.301,56.854,113.311,56.854,113.311C54.872,129.791,48.401,145.409,38.146,158.461C38.146,158.461,-190.099,158.461,-190.099,158.461Z" /></g><g transform="matrix(1,0,0,1,442.332,160.595)"><path fill="#000c2a" d="M-64.913,-65.561C-62.41,-75.037,-62.134,-84.963,-64.106,-94.563C-64.106,-94.563,-77.202,-158.327,-77.202,-158.327C-77.202,-158.327,-76.893,-158.595,-76.893,-158.595C-76.893,-158.595,214.087,158.595,214.087,158.595C214.087,158.595,-214.087,158.595,-214.087,158.595C-203.832,145.543,-197.36,129.924,-195.379,113.444C-195.379,113.444,-185.159,28.434,-185.159,28.434C-181.638,-0.855,-154.791,-21.569,-125.567,-17.544C-99.142,-13.905,-74.156,-30.557,-67.346,-56.348C-67.346,-56.348,-64.913,-65.561,-64.913,-65.561Z" /></g><g transform="matrix(1,0,0,1,357.877,227.661)"><path fill="#000718" d="M-113.826,88.823C-113.826,88.823,90.844,-88.824,90.844,-88.824C90.844,-88.824,110.232,-45.279,110.232,-45.279C113.219,-38.569,113.826,-31.041,111.951,-23.941C107.791,-8.189,92.371,1.96,76.232,-0.262C60.528,-2.425,45.392,7.005,40.582,22.111C40.582,22.111,26.566,66.134,26.566,66.134C24.143,73.742,20.377,80.854,15.444,87.132C15.444,87.132,14.114,88.823,14.114,88.823C14.114,88.823,-113.826,88.823,-113.826,88.823Z" /></g><g transform="matrix(1,0,0,1,491.996,227.586)"><path fill="#001b5d" d="M-22.168,-23.865C-20.293,-30.965,-20.899,-38.494,-23.887,-45.203C-23.887,-45.203,-43.275,-88.748,-43.275,-88.748C-43.275,-88.748,-43.102,-88.898,-43.102,-88.898C-43.102,-88.898,120.004,88.898,120.004,88.898C120.004,88.898,-120.004,88.898,-120.004,88.898C-120.004,88.898,-118.675,87.207,-118.675,87.207C-113.742,80.929,-109.975,73.817,-107.553,66.209C-107.553,66.209,-93.537,22.187,-93.537,22.187C-88.727,7.081,-73.591,-2.35,-57.886,-0.187C-41.747,2.035,-26.328,-8.113,-22.168,-23.865Z" /></g></g><g transform="matrix(1,0,0,1,-1,534)"><g transform="matrix(1,0,0,1,159.387,133.086)"><path fill="#000616" d="M-159.388,132.861C-159.388,132.861,146.755,-132.861,146.755,-132.861C146.755,-132.861,157.735,-79.399,157.735,-79.399C159.388,-71.35,159.157,-63.027,157.059,-55.082C157.059,-55.082,155.019,-47.357,155.019,-47.357C149.309,-25.733,128.36,-11.771,106.204,-14.823C81.701,-18.197,59.19,-0.829,56.238,23.728C56.238,23.728,47.669,95.004,47.669,95.004C46.008,108.822,40.582,121.917,31.984,132.861C31.984,132.861,-159.388,132.861,-159.388,132.861Z" /></g><g transform="matrix(1,0,0,1,370.872,132.973)"><path fill="#000c2a" d="M-54.426,-54.969C-52.328,-62.914,-52.097,-71.237,-53.75,-79.286C-53.75,-79.286,-64.73,-132.749,-64.73,-132.749C-64.73,-132.749,-64.471,-132.974,-64.471,-132.974C-64.471,-132.974,179.5,132.974,179.5,132.974C179.5,132.974,-179.501,132.974,-179.501,132.974C-170.903,122.03,-165.477,108.935,-163.816,95.117C-163.816,95.117,-155.247,23.84,-155.247,23.84C-152.295,-0.717,-129.784,-18.084,-105.281,-14.709C-83.125,-11.658,-62.176,-25.621,-56.466,-47.245C-56.466,-47.245,-54.426,-54.969,-54.426,-54.969Z" /></g><g transform="matrix(1,0,0,1,345.877,177.122)"><path fill="#000718" d="M-113.826,88.824C-113.826,88.824,90.844,-88.824,90.844,-88.824C90.844,-88.824,110.232,-45.278,110.232,-45.278C113.219,-38.569,113.826,-31.04,111.951,-23.94C107.791,-8.188,92.371,1.96,76.232,-0.262C60.528,-2.425,45.392,7.006,40.582,22.112C40.582,22.112,26.566,66.134,26.566,66.134C24.143,73.742,20.377,80.854,15.444,87.132C15.444,87.132,14.114,88.824,14.114,88.824C14.114,88.824,-113.826,88.824,-113.826,88.824Z" /></g><g transform="matrix(1,0,0,1,479.996,177.047)"><path fill="#001b5d" d="M-22.168,-23.865C-20.293,-30.965,-20.899,-38.494,-23.887,-45.203C-23.887,-45.203,-43.275,-88.748,-43.275,-88.748C-43.275,-88.748,-43.102,-88.899,-43.102,-88.899C-43.102,-88.899,120.004,88.899,120.004,88.899C120.004,88.899,-120.004,88.899,-120.004,88.899C-120.004,88.899,-118.675,87.207,-118.675,87.207C-113.742,80.929,-109.975,73.817,-107.553,66.209C-107.553,66.209,-93.537,22.187,-93.537,22.187C-88.727,7.081,-73.591,-2.35,-57.886,-0.188C-41.747,2.035,-26.328,-8.113,-22.168,-23.865Z" /></g></g><g transform="matrix(1,0,0,1,2399,534)"><g transform="matrix(1,0,0,1,159.387,133.086)"><path fill="#000616" d="M-159.388,132.861C-159.388,132.861,146.755,-132.861,146.755,-132.861C146.755,-132.861,157.735,-79.399,157.735,-79.399C159.388,-71.35,159.157,-63.027,157.059,-55.082C157.059,-55.082,155.019,-47.357,155.019,-47.357C149.309,-25.733,128.36,-11.771,106.204,-14.823C81.701,-18.197,59.19,-0.829,56.238,23.728C56.238,23.728,47.669,95.004,47.669,95.004C46.008,108.822,40.582,121.917,31.984,132.861C31.984,132.861,-159.388,132.861,-159.388,132.861Z" /></g><g transform="matrix(1,0,0,1,370.872,132.973)"><path fill="#000c2a" d="M-54.426,-54.969C-52.328,-62.914,-52.097,-71.237,-53.75,-79.286C-53.75,-79.286,-64.73,-132.749,-64.73,-132.749C-64.73,-132.749,-64.471,-132.974,-64.471,-132.974C-64.471,-132.974,179.5,132.974,179.5,132.974C179.5,132.974,-179.501,132.974,-179.501,132.974C-170.903,122.03,-165.477,108.935,-163.816,95.117C-163.816,95.117,-155.247,23.84,-155.247,23.84C-152.295,-0.717,-129.784,-18.084,-105.281,-14.709C-83.125,-11.658,-62.176,-25.621,-56.466,-47.245C-56.466,-47.245,-54.426,-54.969,-54.426,-54.969Z" /></g><g transform="matrix(1,0,0,1,345.877,177.122)"><path fill="#000718" d="M-113.826,88.824C-113.826,88.824,90.844,-88.824,90.844,-88.824C90.844,-88.824,110.232,-45.278,110.232,-45.278C113.219,-38.569,113.826,-31.04,111.951,-23.94C107.791,-8.188,92.371,1.96,76.232,-0.262C60.528,-2.425,45.392,7.006,40.582,22.112C40.582,22.112,26.566,66.134,26.566,66.134C24.143,73.742,20.377,80.854,15.444,87.132C15.444,87.132,14.114,88.824,14.114,88.824C14.114,88.824,-113.826,88.824,-113.826,88.824Z" /></g><g transform="matrix(1,0,0,1,479.996,177.047)"><path fill="#001b5d" d="M-22.168,-23.865C-20.293,-30.965,-20.899,-38.494,-23.887,-45.203C-23.887,-45.203,-43.275,-88.748,-43.275,-88.748C-43.275,-88.748,-43.102,-88.899,-43.102,-88.899C-43.102,-88.899,120.004,88.899,120.004,88.899C120.004,88.899,-120.004,88.899,-120.004,88.899C-120.004,88.899,-118.675,87.207,-118.675,87.207C-113.742,80.929,-109.975,73.817,-107.553,66.209C-107.553,66.209,-93.537,22.187,-93.537,22.187C-88.727,7.081,-73.591,-2.35,-57.886,-0.188C-41.747,2.035,-26.328,-8.113,-22.168,-23.865Z" /></g></g><g transform="matrix(1,0,0,1,542,482)"><g transform="matrix(1,0,0,1,190.099,160.729)"><path fill="#000616" d="M-190.099,158.461C-190.099,158.461,175.031,-158.461,175.031,-158.461C175.031,-158.461,188.127,-94.697,188.127,-94.697C190.099,-85.097,189.822,-75.171,187.32,-65.695C187.32,-65.695,184.887,-56.481,184.887,-56.481C178.077,-30.691,153.091,-14.038,126.666,-17.678C97.442,-21.703,70.594,-0.988,67.073,28.301C67.073,28.301,56.854,113.311,56.854,113.311C54.872,129.791,48.401,145.409,38.146,158.461C38.146,158.461,-190.099,158.461,-190.099,158.461Z" /></g><g transform="matrix(1,0,0,1,442.332,160.595)"><path fill="#000c2a" d="M-64.913,-65.561C-62.41,-75.037,-62.134,-84.963,-64.106,-94.563C-64.106,-94.563,-77.202,-158.327,-77.202,-158.327C-77.202,-158.327,-76.893,-158.595,-76.893,-158.595C-76.893,-158.595,214.087,158.595,214.087,158.595C214.087,158.595,-214.087,158.595,-214.087,158.595C-203.832,145.543,-197.36,129.924,-195.379,113.444C-195.379,113.444,-185.159,28.434,-185.159,28.434C-181.638,-0.855,-154.791,-21.569,-125.567,-17.544C-99.142,-13.905,-74.156,-30.557,-67.346,-56.348C-67.346,-56.348,-64.913,-65.561,-64.913,-65.561Z" /></g><g transform="matrix(1,0,0,1,357.877,227.661)"><path fill="#000718" d="M-113.826,88.823C-113.826,88.823,90.844,-88.824,90.844,-88.824C90.844,-88.824,110.232,-45.279,110.232,-45.279C113.219,-38.569,113.826,-31.041,111.951,-23.941C107.791,-8.189,92.371,1.96,76.232,-0.262C60.528,-2.425,45.392,7.005,40.582,22.111C40.582,22.111,26.566,66.134,26.566,66.134C24.143,73.742,20.377,80.854,15.444,87.132C15.444,87.132,14.114,88.823,14.114,88.823C14.114,88.823,-113.826,88.823,-113.826,88.823Z" /></g><g transform="matrix(1,0,0,1,491.996,227.586)"><path fill="#001b5d" d="M-22.168,-23.865C-20.293,-30.965,-20.899,-38.494,-23.887,-45.203C-23.887,-45.203,-43.275,-88.748,-43.275,-88.748C-43.275,-88.748,-43.102,-88.898,-43.102,-88.898C-43.102,-88.898,120.004,88.898,120.004,88.898C120.004,88.898,-120.004,88.898,-120.004,88.898C-120.004,88.898,-118.675,87.207,-118.675,87.207C-113.742,80.929,-109.975,73.817,-107.553,66.209C-107.553,66.209,-93.537,22.187,-93.537,22.187C-88.727,7.081,-73.591,-2.35,-57.886,-0.187C-41.747,2.035,-26.328,-8.113,-22.168,-23.865Z" /></g></g><g transform="matrix(1,0,0,1,2942,482)"><g transform="matrix(1,0,0,1,190.099,160.729)"><path fill="#000616" d="M-190.099,158.461C-190.099,158.461,175.031,-158.461,175.031,-158.461C175.031,-158.461,188.127,-94.697,188.127,-94.697C190.099,-85.097,189.822,-75.171,187.32,-65.695C187.32,-65.695,184.887,-56.481,184.887,-56.481C178.077,-30.691,153.091,-14.038,126.666,-17.678C97.442,-21.703,70.594,-0.988,67.073,28.301C67.073,28.301,56.854,113.311,56.854,113.311C54.872,129.791,48.401,145.409,38.146,158.461C38.146,158.461,-190.099,158.461,-190.099,158.461Z" /></g><g transform="matrix(1,0,0,1,442.332,160.595)"><path fill="#000c2a" d="M-64.913,-65.561C-62.41,-75.037,-62.134,-84.963,-64.106,-94.563C-64.106,-94.563,-77.202,-158.327,-77.202,-158.327C-77.202,-158.327,-76.893,-158.595,-76.893,-158.595C-76.893,-158.595,214.087,158.595,214.087,158.595C214.087,158.595,-214.087,158.595,-214.087,158.595C-203.832,145.543,-197.36,129.924,-195.379,113.444C-195.379,113.444,-185.159,28.434,-185.159,28.434C-181.638,-0.855,-154.791,-21.569,-125.567,-17.544C-99.142,-13.905,-74.156,-30.557,-67.346,-56.348C-67.346,-56.348,-64.913,-65.561,-64.913,-65.561Z" /></g><g transform="matrix(1,0,0,1,357.877,227.661)"><path fill="#000718" d="M-113.826,88.823C-113.826,88.823,90.844,-88.824,90.844,-88.824C90.844,-88.824,110.232,-45.279,110.232,-45.279C113.219,-38.569,113.826,-31.041,111.951,-23.941C107.791,-8.189,92.371,1.96,76.232,-0.262C60.528,-2.425,45.392,7.005,40.582,22.111C40.582,22.111,26.566,66.134,26.566,66.134C24.143,73.742,20.377,80.854,15.444,87.132C15.444,87.132,14.114,88.823,14.114,88.823C14.114,88.823,-113.826,88.823,-113.826,88.823Z" /></g><g transform="matrix(1,0,0,1,491.996,227.586)"><path fill="#001b5d" d="M-22.168,-23.865C-20.293,-30.965,-20.899,-38.494,-23.887,-45.203C-23.887,-45.203,-43.275,-88.748,-43.275,-88.748C-43.275,-88.748,-43.102,-88.898,-43.102,-88.898C-43.102,-88.898,120.004,88.898,120.004,88.898C120.004,88.898,-120.004,88.898,-120.004,88.898C-120.004,88.898,-118.675,87.207,-118.675,87.207C-113.742,80.929,-109.975,73.817,-107.553,66.209C-107.553,66.209,-93.537,22.187,-93.537,22.187C-88.727,7.081,-73.591,-2.35,-57.886,-0.187C-41.747,2.035,-26.328,-8.113,-22.168,-23.865Z" /></g></g></g></g></g></g><g id="i23"><g transform="translate(600,400)"><animateTransform repeatCount="indefinite" type="translate" attributeName="transform" dur="10.033s" begin="0s" calcMode="spline" values="600 400; 600 394; 600 400; 600 400" keyTimes="0; 0.099668; 0.199336; 1" keySplines="0.333 0 0.667 1; 0.333 0 0.667 1; 0 0 1 1" fill="freeze" /><g transform="scale(1,1) translate(-109.5,-24)"><g id="i10" transform="matrix(1,0,0,1,106.263,33.647)"><path fill="#0057b3" d="M-95.151,-1.698C-95.151,-1.698,-101.787,0,-101.787,0C-101.787,0,-95.922,-6.328,-95.922,-6.328C-95.922,-6.328,101.787,-14.354,101.787,-14.354C101.787,-14.354,62.585,3.66,62.585,3.66C62.585,3.66,-18.752,14.354,-18.752,14.354C-18.752,14.354,-64.591,12.038,-64.591,12.038C-64.591,12.038,-95.151,-1.698,-95.151,-1.698Z" /></g><g id="i11" transform="matrix(1,0,0,1,109.041,21.299)"><path fill="#0073ff" d="M-109.042,15.28C-109.042,15.28,-106.726,21.299,-106.726,21.299C-106.726,21.299,-104.411,18.675,-104.411,18.675C-104.411,18.675,-97.466,15.28,-97.466,15.28C-97.466,15.28,109.042,-0.617,109.042,-0.617C109.042,-0.617,64.283,-7.408,64.283,-7.408C64.283,-7.408,-26.624,-21.299,-26.624,-21.299C-26.624,-21.299,-73.235,-7.408,-73.235,-7.408C-73.235,-7.408,-92.373,-0.926,-92.373,-0.926C-92.373,-0.926,-99.472,4.476,-99.472,4.476C-99.472,4.476,-109.042,15.28,-109.042,15.28Z" /></g><g><g transform="translate(56.476,28.527)"><g transform="rotate(0)"><animateTransform repeatCount="indefinite" type="rotate" attributeName="transform" dur="10.033s" begin="0s" calcMode="spline" values="0; -3; 0; 0" keyTimes="0; 0.099668; 0.199336; 1" keySplines="0.333 0 0.667 1; 0.152 0 0.44 1; 0 0 1 1" fill="freeze" /><g id="i12" transform="translate(59.664,-4.142)"><path fill="#7bacff" d="M-79.562,10.032C-79.562,10.032,-66.598,-4.939,-66.598,-4.939C-66.598,-4.939,-30.637,-15.897,-30.637,-15.897C-30.637,-15.897,56.411,-4.939,56.411,-4.939C56.411,-4.939,79.562,-2.932,79.562,-2.932C79.562,-2.932,48.385,10.186,48.385,10.186C48.385,10.186,-28.63,15.897,-28.63,15.897C-28.63,15.897,-72.308,13.891,-72.308,13.891C-72.308,13.891,-79.562,10.032,-79.562,10.032Z" /></g></g></g></g><g id="i13" transform="matrix(1,0,0,1,18.212,27.164)"><path fill="#000000" d="M-0.772,-2.161C-0.772,-2.161,-4.167,0.309,-4.167,0.309C-4.167,0.309,-0.772,2.161,-0.772,2.161C-0.772,2.161,4.167,-1.698,4.167,-1.698C4.167,-1.698,-0.772,-2.161,-0.772,-2.161Z" /></g></g></g></g></svg>